# xmcd CD database file
#
# Track frame offsets:
#	150
#	11492
#	25890
#	37985
#	51510
#	65997
#	76102
#	91570
#	109317
#	119257
#	133265
#	145835
#	159630
#	176092
#
# Disc length: 2509 seconds
#
# Revision: 6
# Processed by: cddbd v1.5.2PL0 Copyright (c) Steve Scherf et al.
# Submitted via: CDex 1.50
#
DISCID=bd09cb0e
DTITLE=Manfred Krug and Charles Brauer - Tatort - Die Songs
DYEAR=2000
DGENRE=Jazz
TTITLE0=Manfred Krug and Charles Brauer - Somewhere Over The Rainbow
TTITLE1=All Of Me
TTITLE2=Ganz leise
TTITLE3=Cry Me A River
TTITLE4=Quiet Nights
TTITLE5=But Not For Me
TTITLE6=Spiel mir eine alte Melodie
TTITLE7=Goody Goody
TTITLE8=Peterle
TTITLE9=Sentimental Journey
TTITLE10=Kann denn Liebe Sünde sein
TTITLE11=As Time Goes By
TTITLE12=Stormy Weather
TTITLE13=Jim, Jonny und Jonas
EXTD=YEAR: 2000
EXTT0=
EXTT1=
EXTT2=
EXTT3=
EXTT4=
EXTT5=
EXTT6=
EXTT7=
EXTT8=
EXTT9=
EXTT10=
EXTT11=
EXTT12=
EXTT13=
PLAYORDER=
